<?xml version="1.0" standalone="no"?>
<!DOCTYPE svg PUBLIC "-//W3C//DTD SVG 20010904//EN"
 "http://www.w3.org/TR/2001/REC-SVG-20010904/DTD/svg10.dtd">
<svg version="1.0" xmlns="http://www.w3.org/2000/svg"
 width="256.000000pt" height="256.000000pt" viewBox="0 0 256.000000 256.000000"
 preserveAspectRatio="xMidYMid meet">
<metadata>
Created by potrace 1.14, written by Peter Selinger 2001-2017
</metadata>
<g transform="translate(0.000000,256.000000) scale(0.100000,-0.100000)"
fill="#000000" stroke="none">
<path d="M549 1744 c-6 -8 -17 -14 -23 -14 -7 0 -25 -13 -41 -30 -16 -16 -38
-30 -50 -30 -11 0 -25 -4 -31 -10 -15 -15 -68 4 -80 28 -6 12 -14 19 -17 15
-4 -3 -16 2 -27 12 -18 16 -20 16 -35 1 -21 -20 -55 -21 -55 0 0 8 -5 12 -11
9 -6 -4 -8 -13 -5 -21 3 -7 1 -16 -4 -19 -6 -4 -10 -1 -10 5 0 6 -5 8 -12 4
-8 -5 -9 0 -6 14 4 12 2 22 -3 22 -5 0 -9 -13 -9 -30 0 -16 4 -30 9 -30 13 0
7 -53 -6 -57 -14 -5 8 -53 23 -53 7 0 14 -9 17 -19 3 -14 12 -19 30 -17 37 4
49 -33 52 -158 1 -57 6 -109 10 -115 15 -25 16 -68 1 -81 -11 -8 -13 -17 -7
-29 5 -9 8 -30 6 -48 -1 -18 3 -44 11 -58 7 -14 11 -31 8 -39 -7 -18 22 -14
71 10 27 13 39 26 38 38 -1 11 8 27 20 36 20 17 21 22 10 81 -7 42 -7 68 -1
76 6 7 7 30 4 50 -3 21 -7 65 -9 98 -1 38 -7 64 -17 71 -12 10 -12 15 -1 27 7
9 19 13 27 10 10 -3 12 0 8 10 -3 10 2 18 17 22 14 5 25 3 27 -4 2 -6 8 -11
14 -11 6 0 8 6 5 13 -9 24 19 47 62 51 34 3 42 1 40 -12 -3 -34 2 -42 25 -42
14 0 32 -10 40 -22 l16 -22 25 24 c14 13 25 35 25 48 0 19 3 22 13 13 17 -14
27 -5 27 24 0 21 -30 58 -30 39 -1 -5 -10 10 -21 34 -13 28 -26 42 -39 42 -11
0 -20 6 -20 14 0 7 -8 16 -17 19 -10 3 -32 10 -50 15 -25 8 -35 7 -44 -4z"/>
<path d="M1693 1675 c-19 -21 -29 -76 -27 -145 3 -128 21 -206 49 -216 8 -4
15 -11 15 -18 0 -13 61 -56 80 -56 7 0 21 -7 31 -16 16 -14 19 -14 38 5 19 19
21 19 21 3 0 -9 9 -23 20 -30 16 -10 24 -10 43 2 22 14 87 11 87 -4 0 -4 18
-7 40 -6 41 1 50 12 28 34 -9 9 -7 12 10 12 17 0 22 6 22 25 0 15 6 25 14 25
8 0 16 5 18 12 3 7 12 9 22 5 15 -6 18 -15 13 -47 -3 -22 -1 -40 3 -40 8 0 20
-27 25 -59 1 -9 -2 -24 -6 -33 -6 -10 -5 -19 1 -23 6 -4 8 -11 4 -17 -3 -5 -8
-40 -9 -76 -7 -153 -31 -226 -88 -261 -19 -12 -38 -28 -41 -36 -3 -8 -12 -15
-21 -15 -9 0 -24 -19 -35 -42 -10 -24 -19 -36 -20 -28 0 11 -6 8 -19 -9 -17
-23 -18 -23 -51 -6 -37 19 -43 15 -60 -37 -11 -37 -30 -52 -30 -24 0 7 -7 20
-16 27 -14 11 -18 11 -29 -5 -13 -17 -14 -17 -25 3 -11 21 -11 21 -36 -9 -14
-16 -23 -34 -20 -39 4 -5 -1 -16 -9 -24 -13 -13 -11 -18 14 -44 16 -15 31 -41
33 -58 3 -28 5 -30 43 -27 22 1 50 8 62 14 26 13 35 7 37 -23 1 -25 26 -39 26
-15 0 9 5 16 10 16 6 0 10 14 10 30 0 38 15 39 25 3 7 -28 7 -28 18 -5 12 27
38 28 62 2 19 -20 40 -17 31 5 -2 7 4 22 14 32 16 18 33 56 35 77 0 5 7 12 16
15 30 11 74 73 70 99 -2 21 1 24 17 20 27 -7 42 41 18 54 -16 9 -21 39 -9 51
3 4 15 0 25 -10 21 -18 24 -4 7 29 -12 23 5 79 24 75 6 -1 12 11 12 26 0 15 7
32 15 37 8 5 12 10 8 10 -4 0 -3 12 2 26 6 15 7 32 2 38 -4 6 -8 16 -7 21 1 6
5 32 10 59 7 42 5 51 -11 63 -10 7 -28 13 -41 13 l-23 0 20 20 c24 24 30 25
30 4 0 -24 35 -12 38 14 2 15 -4 25 -22 34 -27 12 -36 30 -13 27 30 -4 34 1
28 34 -6 26 -12 32 -31 31 -23 -1 -23 0 7 25 25 20 33 36 37 73 3 28 1 48 -5
50 -6 2 -12 24 -13 48 -2 25 -7 53 -11 63 -11 26 -96 80 -108 68 -12 -12 -23
-78 -19 -114 3 -22 6 -26 17 -17 22 18 26 -6 4 -26 -28 -26 -49 -26 -49 -1 0
11 -3 17 -7 13 -5 -4 -8 -13 -8 -19 0 -7 -15 -18 -32 -26 -18 -8 -33 -20 -33
-27 0 -16 -49 -55 -60 -49 -5 3 -11 1 -14 -4 -4 -5 -2 -12 3 -16 13 -8 2 -35
-14 -35 -7 0 -18 7 -25 15 -8 10 -18 12 -29 6 -25 -13 -81 11 -109 47 -14 18
-19 32 -13 32 7 0 10 4 6 9 -3 5 -8 40 -11 78 -7 82 -31 166 -47 160 -7 -2
-19 1 -27 8 -23 19 -73 25 -87 10z m47 -120 c7 -8 8 -15 2 -15 -5 0 -15 7 -22
15 -7 8 -8 15 -2 15 5 0 15 -7 22 -15z m597 -31 c-3 -3 -12 -4 -19 -1 -8 3 -5
6 6 6 11 1 17 -2 13 -5z m-137 -171 c0 -7 -8 -17 -18 -22 -15 -8 -17 -5 -14
30 4 36 5 38 18 22 7 -10 14 -23 14 -30z m-465 17 c-3 -5 -11 -10 -16 -10 -6
0 -7 5 -4 10 3 6 11 10 16 10 6 0 7 -4 4 -10z m305 -770 c0 -5 -2 -10 -4 -10
-3 0 -8 5 -11 10 -3 6 -1 10 4 10 6 0 11 -4 11 -10z m32 -146 c-3 -15 0 -24 9
-24 7 0 10 -2 7 -5 -5 -5 -68 23 -68 30 0 2 7 10 15 19 22 21 43 10 37 -20z
m-229 9 c-7 -2 -21 -2 -30 0 -10 3 -4 5 12 5 17 0 24 -2 18 -5z m21 -48 c-6
-13 -61 -31 -70 -22 -2 2 -2 11 2 20 4 12 13 15 30 11 15 -4 24 -2 24 6 0 6 4
9 10 5 5 -3 7 -12 4 -20z"/>
<path d="M1345 1647 c-16 -5 -77 -10 -135 -13 -154 -5 -209 -9 -214 -15 -9 -9
17 -68 32 -74 8 -3 20 -1 27 5 10 8 17 7 26 -3 13 -14 49 -12 49 3 0 5 9 6 20
3 11 -3 20 -9 20 -13 0 -4 10 -6 23 -5 12 1 39 3 60 4 27 1 37 5 37 18 0 9 3
14 6 10 12 -11 -7 -46 -22 -40 -16 6 -54 -31 -54 -53 0 -7 -6 -11 -13 -8 -16
6 -77 -44 -77 -63 0 -6 -10 -13 -22 -15 -15 -2 -30 -18 -45 -48 -13 -25 -23
-39 -23 -32 0 20 -21 14 -27 -8 -3 -11 -9 -20 -14 -20 -5 0 -9 -9 -9 -21 0
-14 -5 -19 -14 -16 -10 4 -13 1 -9 -9 3 -7 0 -14 -5 -14 -6 0 -12 10 -15 23
-3 16 -6 12 -11 -18 -6 -33 -12 -41 -31 -43 -13 -1 -27 3 -31 10 -4 6 -3 8 4
4 6 -3 14 -1 18 5 8 14 -45 4 -60 -11 -14 -13 2 -60 18 -54 17 6 31 -12 16
-21 -6 -4 -7 -11 -4 -17 4 -6 10 -5 15 3 7 11 12 9 24 -8 20 -29 85 -33 85 -6
0 14 3 13 20 -5 12 -12 24 -22 29 -22 16 0 21 13 10 27 -15 17 -9 16 29 -3 18
-8 36 -12 42 -9 6 4 18 1 26 -6 11 -9 18 -9 32 3 9 9 28 21 41 28 21 11 23 10
18 -4 -3 -8 -2 -18 3 -21 6 -4 10 3 10 14 0 12 5 21 10 21 6 0 10 -4 10 -8 0
-10 41 -10 56 0 11 7 54 -26 54 -42 0 -10 19 -8 39 4 10 6 12 5 7 -2 -5 -8 1
-12 16 -11 13 0 38 -2 57 -4 35 -6 71 9 71 30 0 16 12 17 28 1 18 -18 50 16
44 47 -2 14 -7 25 -11 26 -47 5 -66 10 -81 24 -13 11 -20 13 -25 5 -4 -7 -11
-8 -18 -2 -7 6 -33 7 -61 2 -26 -4 -62 -5 -80 -1 -27 4 -136 5 -260 1 -43 -1
-51 3 -43 25 4 8 7 19 8 23 2 17 23 32 38 28 22 -7 63 28 55 48 -4 10 0 18 10
22 9 3 16 12 16 20 0 8 4 14 9 14 5 0 7 -9 4 -19 -4 -16 -1 -19 18 -14 41 11
113 78 103 95 -5 7 -2 9 7 6 22 -9 70 46 90 101 9 27 15 52 12 55 -3 3 -1 12
6 19 8 11 7 17 -7 29 -24 21 -52 26 -87 15z m-105 -277 c0 -5 -7 -7 -15 -4 -8
4 -12 10 -9 15 6 11 24 2 24 -11z m35 10 c-3 -5 -11 -10 -16 -10 -6 0 -7 5 -4
10 3 6 11 10 16 10 6 0 7 -4 4 -10z m39 -271 c-3 -5 -10 -7 -15 -3 -5 3 -7 10
-3 15 3 5 10 7 15 3 5 -3 7 -10 3 -15z"/>
</g>
</svg>
